<svg id="Capa_1" enable-background="new 0 0 512 512" height="512" viewBox="0 0 512 512" width="512" xmlns="http://www.w3.org/2000/svg"><g><g><path d="m411.57 0h-154.21c-4.142 0-7.5 3.357-7.5 7.5s3.358 7.5 7.5 7.5h82.05v22.8c0 1.439-1.167 2.61-2.601 2.61h-20.199c-4.143 0-7.5 3.357-7.5 7.5v20.2c0 1.434-1.167 2.6-2.601 2.6h-101.019c-1.434 0-2.6-1.166-2.6-2.6v-20.2c0-4.143-3.358-7.5-7.5-7.5h-20.2c-1.434 0-2.6-1.171-2.6-2.61v-22.8h49.77c4.142 0 7.5-3.357 7.5-7.5s-3.358-7.5-7.5-7.5h-121.93c-20.843 0-37.8 16.957-37.8 37.8v44.04c0 4.143 3.358 7.5 7.5 7.5s7.5-3.357 7.5-7.5v-44.04c0-12.572 10.228-22.8 22.8-22.8h57.16v22.8c0 .889.088 1.756.215 2.61h-47.265c-4.142 0-7.5 3.357-7.5 7.5v416.18c0 4.143 3.358 7.5 7.5 7.5h290.92c4.143 0 7.5-3.357 7.5-7.5v-147.15c0-4.143-3.357-7.5-7.5-7.5s-7.5 3.357-7.5 7.5v139.65h-275.92v-401.18h69.85v12.7c0 9.704 7.896 17.6 17.6 17.6h101.02c9.705 0 17.601-7.896 17.601-17.6v-12.7h69.85v226.53c0 4.143 3.357 7.5 7.5 7.5s7.5-3.357 7.5-7.5v-234.03c0-4.143-3.357-7.5-7.5-7.5h-47.265c.128-.854.215-1.721.215-2.61v-22.8h57.16c12.572 0 22.8 10.228 22.8 22.8v436.4c0 12.572-10.228 22.8-22.8 22.8h-311.141c-12.572 0-22.8-10.228-22.8-22.8v-357.36c0-4.143-3.358-7.5-7.5-7.5s-7.5 3.357-7.5 7.5v357.36c0 20.843 16.957 37.8 37.8 37.8h311.14c20.843 0 37.8-16.957 37.8-37.8v-436.4c0-20.843-16.957-37.8-37.8-37.8z"/><path d="m163.065 124.25c-15.275 0-27.703 12.428-27.703 27.703s12.428 27.703 27.703 27.703 27.703-12.428 27.703-27.703-12.428-27.703-27.703-27.703zm0 40.406c-7.004 0-12.703-5.698-12.703-12.703s5.699-12.703 12.703-12.703 12.703 5.698 12.703 12.703-5.699 12.703-12.703 12.703z"/><path d="m369.139 124.25h-155.566c-4.142 0-7.5 3.357-7.5 7.5s3.358 7.5 7.5 7.5h155.565c4.143 0 7.5-3.357 7.5-7.5s-3.357-7.5-7.499-7.5z"/><path d="m213.573 179.656h115.158c4.143 0 7.5-3.357 7.5-7.5s-3.357-7.5-7.5-7.5h-115.158c-4.142 0-7.5 3.357-7.5 7.5s3.358 7.5 7.5 7.5z"/><path d="m163.065 197.992c-15.275 0-27.703 12.428-27.703 27.703s12.428 27.703 27.703 27.703 27.703-12.428 27.703-27.703-12.428-27.703-27.703-27.703zm0 40.406c-7.004 0-12.703-5.698-12.703-12.703s5.699-12.703 12.703-12.703 12.703 5.698 12.703 12.703-5.699 12.703-12.703 12.703z"/><path d="m369.139 197.992h-155.566c-4.142 0-7.5 3.357-7.5 7.5s3.358 7.5 7.5 7.5h155.565c4.143 0 7.5-3.357 7.5-7.5s-3.357-7.5-7.499-7.5z"/><path d="m213.573 253.398h115.158c4.143 0 7.5-3.357 7.5-7.5s-3.357-7.5-7.5-7.5h-115.158c-4.142 0-7.5 3.357-7.5 7.5s3.358 7.5 7.5 7.5z"/><path d="m163.065 271.733c-15.275 0-27.703 12.428-27.703 27.703 0 15.276 12.428 27.704 27.703 27.704s27.703-12.428 27.703-27.704c0-15.275-12.428-27.703-27.703-27.703zm0 40.408c-7.004 0-12.703-5.699-12.703-12.704s5.699-12.703 12.703-12.703 12.703 5.698 12.703 12.703-5.699 12.704-12.703 12.704z"/><path d="m369.139 271.733h-155.566c-4.142 0-7.5 3.357-7.5 7.5s3.358 7.5 7.5 7.5h155.565c4.143 0 7.5-3.357 7.5-7.5s-3.357-7.5-7.499-7.5z"/><path d="m213.573 327.141h115.158c4.143 0 7.5-3.357 7.5-7.5s-3.357-7.5-7.5-7.5h-115.158c-4.142 0-7.5 3.357-7.5 7.5s3.358 7.5 7.5 7.5z"/><path d="m163.065 345.476c-15.275 0-27.703 12.428-27.703 27.703s12.428 27.703 27.703 27.703 27.703-12.428 27.703-27.703-12.428-27.703-27.703-27.703zm0 40.406c-7.004 0-12.703-5.698-12.703-12.703s5.699-12.703 12.703-12.703 12.703 5.698 12.703 12.703-5.699 12.703-12.703 12.703z"/><path d="m376.639 352.976c0-4.143-3.357-7.5-7.5-7.5h-155.566c-4.142 0-7.5 3.357-7.5 7.5s3.358 7.5 7.5 7.5h155.565c4.143 0 7.501-3.358 7.501-7.5z"/><path d="m213.573 385.882c-4.142 0-7.5 3.357-7.5 7.5s3.358 7.5 7.5 7.5h115.158c4.143 0 7.5-3.357 7.5-7.5s-3.357-7.5-7.5-7.5z"/></g></g></svg>